STARTFONT 2.1
FONT -sun-arioso-bold-r-normal--24-240-75-75-p-129-adobe-fontspecific
SIZE 24 75 75
FONTBOUNDINGBOX 32 29 -5 -6

STARTPROPERTIES 28
FOUNDRY "sun"
FAMILY_NAME "arioso"
WEIGHT_NAME "bold"
SLANT "r"
SETWIDTH_NAME "normal"
ADD_STYLE_NAME ""
PIXEL_SIZE 25
POINT_SIZE 240
RESOLUTION_X 75
RESOLUTION_Y 75
SPACING "p"
AVERAGE_WIDTH 129
CHARSET_REGISTRY "adobe"
CHARSET_ENCODING "fontspecific"
COPYRIGHT "© 1999 Sun Microsystems, Inc."
RAW_PIXELSIZE 1000
RAW_POINTSIZE 964
RAW_ASCENT 906
RAW_DESCENT 247
RAW_AVERAGE_WIDTH 5188
FACE_NAME "AriosoBold"
_XMBDFED_INFO "Edited with xmbdfed 2.4."
WEIGHT 10
X_HEIGHT -2
QUAD_WIDTH 13
DEFAULT_CHAR 4
FONT_DESCENT 6
FONT_ASCENT 23
ENDPROPERTIES

CHARS 195

STARTCHAR char32
ENCODING 32
SWIDTH 21 0
DWIDTH 6 0
BBX 0 0 0 0
BITMAP
ENDCHAR

STARTCHAR char33
ENCODING 33
SWIDTH 32 0
DWIDTH 9 0
BBX 8 17 2 0
BITMAP
0E
0E
0E
0C
0C
18
18
10
10
30
20
20
00
00
C0
C0
40
ENDCHAR

STARTCHAR char34
ENCODING 34
SWIDTH 35 0
DWIDTH 10 0
BBX 8 6 3 11
BITMAP
77
F7
33
22
44
88
ENDCHAR

STARTCHAR char35
ENCODING 35
SWIDTH 13 0
DWIDTH 14 0
BBX 12 19 1 0
BITMAP
0C60
0C40
0840
08C0
18C0
FFF0
FFF0
18C0
1880
1880
1180
1180
FFE0
FFE0
3180
3180
3100
2100
2300
ENDCHAR

STARTCHAR char36
ENCODING 36
SWIDTH 17 0
DWIDTH 15 0
BBX 14 21 0 -2
BITMAP
0020
00E0
0778
0848
0848
1888
1880
1D80
0F00
0F80
07E0
03E0
02F0
0470
0430
8420
8420
C8C0
3F00
0800
1000
ENDCHAR

STARTCHAR char37
ENCODING 37
SWIDTH 31 0
DWIDTH 19 0
BBX 18 16 0 0
BITMAP
080100
340200
620400
620800
C61000
C62000
C42300
8C4E80
889CC0
711CC0
0238C0
0438C0
0C3180
083180
101300
200E00
ENDCHAR

STARTCHAR char38
ENCODING 38
SWIDTH 10 0
DWIDTH 13 0
BBX 12 15 0 0
BITMAP
01C0
0260
0660
0640
0680
0700
0710
1BB0
33A0
61E0
C1E0
C0E0
C0E0
6370
3C40
ENDCHAR

STARTCHAR char39
ENCODING 39
SWIDTH 17 0
DWIDTH 5 0
BBX 5 7 2 11
BITMAP
10
10
20
40
C0
F0
C0
ENDCHAR

STARTCHAR char40
ENCODING 40
SWIDTH 32 0
DWIDTH 9 0
BBX 9 22 1 -4
BITMAP
0080
0100
0200
0600
0C00
1C00
1800
3800
7000
7000
7000
E000
E000
E000
C000
C000
C000
C000
8000
8000
8000
8000
ENDCHAR

STARTCHAR char41
ENCODING 41
SWIDTH 32 0
DWIDTH 9 0
BBX 9 23 -2 -5
BITMAP
0080
0080
0100
0180
0180
0180
0180
0380
0380
0380
0300
0700
0700
0700
0E00
0E00
1C00
1800
3000
3000
6000
8000
8000
ENDCHAR

STARTCHAR char42
ENCODING 42
SWIDTH 32 0
DWIDTH 9 0
BBX 7 9 3 9
BITMAP
30
30
F6
DE
30
DE
F6
30
10
ENDCHAR

STARTCHAR char43
ENCODING 43
SWIDTH 21 0
DWIDTH 16 0
BBX 14 14 2 0
BITMAP
0300
0300
0300
0300
0300
0300
FFFC
0300
0300
0300
0300
0300
0300
0300
ENDCHAR

STARTCHAR char44
ENCODING 44
SWIDTH 21 0
DWIDTH 6 0
BBX 4 6 0 -3
BITMAP
30
70
30
20
40
80
ENDCHAR

STARTCHAR char45
ENCODING 45
SWIDTH 32 0
DWIDTH 9 0
BBX 8 1 0 5
BITMAP
FE
ENDCHAR

STARTCHAR char46
ENCODING 46
SWIDTH 21 0
DWIDTH 6 0
BBX 2 3 1 0
BITMAP
40
C0
40
ENDCHAR

STARTCHAR char47
ENCODING 47
SWIDTH 6 0
DWIDTH 12 0
BBX 13 18 -1 0
BITMAP
0008
0010
0030
0020
0040
00C0
0080
0180
0300
0200
0600
0400
0800
1800
1000
3000
6000
4000
ENDCHAR

STARTCHAR char48
ENCODING 48
SWIDTH 13 0
DWIDTH 14 0
BBX 11 16 1 0
BITMAP
0780
0C40
1840
3860
3060
7060
7060
E0E0
E0E0
E0E0
C1C0
C1C0
C180
C380
4700
3C00
ENDCHAR

STARTCHAR char49
ENCODING 49
SWIDTH 13 0
DWIDTH 14 0
BBX 9 16 3 0
BITMAP
0080
0180
0700
0F00
3600
4E00
8E00
0C00
1C00
1C00
3800
3800
3800
7000
7000
6000
ENDCHAR

STARTCHAR char50
ENCODING 50
SWIDTH 13 0
DWIDTH 14 0
BBX 13 16 -1 0
BITMAP
01C0
0230
0410
0C18
0838
0838
0870
08F0
00E0
0180
0600
0800
1000
2610
7FE0
8780
ENDCHAR

STARTCHAR char51
ENCODING 51
SWIDTH 13 0
DWIDTH 14 0
BBX 11 16 0 0
BITMAP
0F80
0C40
0860
0060
0060
00E0
0980
0F00
1180
00C0
00C0
01C0
01C0
8380
C700
7C00
ENDCHAR

STARTCHAR char52
ENCODING 52
SWIDTH 13 0
DWIDTH 14 0
BBX 14 16 -1 0
BITMAP
0004
0004
0008
0018
0078
00B0
0170
0270
0460
08E0
10E0
3FF8
7FF0
0180
0380
0300
ENDCHAR

STARTCHAR char53
ENCODING 53
SWIDTH 13 0
DWIDTH 14 0
BBX 12 16 0 0
BITMAP
03F0
07F0
0400
0800
0800
0800
1FC0
1060
0060
0060
00E0
00C0
01C0
8380
8700
7C00
ENDCHAR

STARTCHAR char54
ENCODING 54
SWIDTH 13 0
DWIDTH 14 0
BBX 12 16 1 0
BITMAP
0020
00C0
0180
0700
0E00
1C00
3F80
78C0
70E0
E0E0
E0E0
C1C0
C1C0
C180
4300
3E00
ENDCHAR

STARTCHAR char55
ENCODING 55
SWIDTH 13 0
DWIDTH 14 0
BBX 11 16 2 0
BITMAP
3F60
7FA0
7E40
80C0
0180
0100
0300
0600
0600
0C00
1C00
1800
3800
7800
7000
C000
ENDCHAR

STARTCHAR char56
ENCODING 56
SWIDTH 13 0
DWIDTH 14 0
BBX 13 16 0 0
BITMAP
01C0
0230
0418
0C18
0C18
0E30
0FE0
0700
0F80
7180
61C0
C0C0
C0C0
C0C0
6180
3E00
ENDCHAR

STARTCHAR char57
ENCODING 57
SWIDTH 13 0
DWIDTH 14 0
BBX 12 17 0 -1
BITMAP
0380
0660
0C20
1830
1830
3870
3070
3060
30E0
11C0
0FC0
0380
0600
0400
1800
2000
4000
ENDCHAR

STARTCHAR char58
ENCODING 58
SWIDTH 25 0
DWIDTH 7 0
BBX 5 10 1 0
BITMAP
18
18
08
00
00
00
00
40
F0
40
ENDCHAR

STARTCHAR char59
ENCODING 59
SWIDTH 25 0
DWIDTH 7 0
BBX 6 13 1 -3
BITMAP
08
1C
08
00
00
00
00
70
F0
30
20
40
80
ENDCHAR

STARTCHAR char60
ENCODING 60
SWIDTH 17 0
DWIDTH 15 0
BBX 13 13 1 0
BITMAP
0008
0038
00E0
0780
1E00
7800
E000
F000
3C00
0700
01E0
0078
0018
ENDCHAR

STARTCHAR char61
ENCODING 61
SWIDTH 21 0
DWIDTH 16 0
BBX 16 5 1 5
BITMAP
FFFF
0000
0000
0000
FFFF
ENDCHAR

STARTCHAR char62
ENCODING 62
SWIDTH 17 0
DWIDTH 15 0
BBX 13 13 1 0
BITMAP
8000
E000
3800
0F00
03C0
00F0
0038
0078
01E0
0700
3C00
F000
C000
ENDCHAR

STARTCHAR char63
ENCODING 63
SWIDTH 3 0
DWIDTH 11 0
BBX 8 17 3 0
BITMAP
1C
22
42
47
4E
5E
1C
38
70
60
80
90
70
00
C0
C0
C0
ENDCHAR

STARTCHAR char64
ENCODING 64
SWIDTH 16 0
DWIDTH 25 0
BBX 18 19 4 0
BITMAP
01F000
07F800
1C0E00
300700
600180
63ED80
C7FCC0
CE1CC0
CC18C0
DC18C0
D818C0
D83180
D83100
DC7300
4FFE00
679980
380300
1FFC00
07F000
ENDCHAR

STARTCHAR char65
ENCODING 65
SWIDTH 9 0
DWIDTH 23 0
BBX 24 18 -1 0
BITMAP
00000E
000016
00002E
00002E
00004E
00009C
00009C
000118
000138
03FFFE
1C0230
700470
600460
C00860
C010E0
C020C0
60C0C7
3F00F8
ENDCHAR

STARTCHAR char66
ENCODING 66
SWIDTH 35 0
DWIDTH 20 0
BBX 19 18 -1 0
BITMAP
00FE00
038580
0E1C40
181C60
303860
6038E0
C038C0
C07380
C07600
C07100
C06080
40E0C0
40E0C0
00C1C0
0181C0
030380
060700
1FFC00
ENDCHAR

STARTCHAR char67
ENCODING 67
SWIDTH 17 0
DWIDTH 15 0
BBX 15 18 0 0
BITMAP
00F8
0384
0E06
1C06
3C06
3846
7186
720C
E40C
EC18
F830
D860
D9C0
CF80
C000
4000
200E
1FF0
ENDCHAR

STARTCHAR char68
ENCODING 68
SWIDTH 6 0
DWIDTH 22 0
BBX 22 18 -1 0
BITMAP
003F80
01C160
060310
0C0618
180E08
300C0C
601C0C
401C0C
C0381C
C0381C
C0781C
C07038
407038
006070
00E0E0
00C1C0
018780
03FC00
ENDCHAR

STARTCHAR char69
ENCODING 69
SWIDTH 17 0
DWIDTH 15 0
BBX 15 18 0 0
BITMAP
0070
00EC
01C4
038C
0388
0390
0320
0300
0200
0C00
3800
7004
E006
C006
C00C
C018
6030
3FC0
ENDCHAR

STARTCHAR char70
ENCODING 70
SWIDTH 13 0
DWIDTH 24 0
BBX 26 23 -1 -5
BITMAP
007F8000
01FFFC00
060FFF80
08001F80
10001000
20003000
20006000
40006000
4000E000
C000C000
C01FFF80
C01FFF00
C007C000
C007C000
C0078000
400F8000
40178000
00170000
00370000
00260000
00660000
006C0000
00700000
ENDCHAR

STARTCHAR char71
ENCODING 71
SWIDTH 2 0
DWIDTH 21 0
BBX 22 23 -1 -5
BITMAP
0003F0
001C78
007018
00E018
01C010
038020
070040
070180
0E0210
0E0CF0
0E30F0
1EC0E0
1F00E0
1C01E0
FC01C0
1E03C0
0E1F8C
07E330
0003C0
003E00
00C400
019800
00E000
ENDCHAR

STARTCHAR char72
ENCODING 72
SWIDTH 9 0
DWIDTH 23 0
BBX 23 18 0 0
BITMAP
03E00C
1FFE16
73F472
400C64
8018D8
0039E0
003980
007B80
007704
00E706
01E606
06EE06
19CE06
31CC04
638C08
C30C10
C60C60
780780
ENDCHAR

STARTCHAR char73
ENCODING 73
SWIDTH 21 0
DWIDTH 16 0
BBX 18 18 -1 0
BITMAP
01FC00
07FFC0
080080
100180
200380
200300
000700
000700
000700
000E00
000E00
1FEE00
201C00
401F00
C03880
C07000
40E000
3F8000
ENDCHAR

STARTCHAR char74
ENCODING 74
SWIDTH 17 0
DWIDTH 15 0
BBX 17 23 0 -5
BITMAP
003F80
01C100
060300
1C0600
380E00
700E00
601C00
C01C00
C01C00
C03800
C03800
C07800
807300
807C00
80E000
07E000
08C000
31C000
638000
C30000
C60000
C80000
700000
ENDCHAR

STARTCHAR char75
ENCODING 75
SWIDTH 16 0
DWIDTH 25 0
BBX 26 18 -1 0
BITMAP
00FEF080
03FF4380
0400C700
0801C600
08018E00
00039C00
00039800
0003B000
00076000
00078000
000F0000
000E0000
000F8000
000FC000
0019E000
0010F000
6060F8C0
1F807F00
ENDCHAR

STARTCHAR char76
ENCODING 76
SWIDTH 31 0
DWIDTH 19 0
BBX 20 18 -1 0
BITMAP
0001E0
000620
000C30
000C30
001830
003830
003860
003860
0070C0
007080
007300
006C00
006800
00C000
1FC000
7FFC00
C6FFB0
780FC0
ENDCHAR

STARTCHAR char77
ENCODING 77
SWIDTH 24 0
DWIDTH 27 0
BBX 28 18 -1 0
BITMAP
00006060
0001B0E0
00033160
000272E0
000465C0
000CE5C0
000CEB80
0018D380
0019D780
0031E700
0033A700
0063CE00
0063CE00
00C78E00
00871C00
818F1C00
820E1C60
7C000F80
ENDCHAR

STARTCHAR char78
ENCODING 78
SWIDTH 6 0
DWIDTH 22 0
BBX 24 18 -1 0
BITMAP
00F802
030C1E
060462
0C0684
18070C
300E18
700E38
601E70
C02C70
C05C70
C05CE0
C0BCE0
C138E0
C138C0
4370C0
0360C0
03E043
03803C
ENDCHAR

STARTCHAR char79
ENCODING 79
SWIDTH 24 0
DWIDTH 17 0
BBX 16 18 0 0
BITMAP
0038
02C4
0586
0D06
1907
3207
3207
7207
600F
E00E
E00E
C01E
C01C
C01C
C038
6070
20E0
1F80
ENDCHAR

STARTCHAR char80
ENCODING 80
SWIDTH 9 0
DWIDTH 23 0
BBX 23 23 -1 -5
BITMAP
003F80
01E170
070218
0C060C
380C04
301C06
601806
E03806
C03806
C0700E
C0700C
C0F01C
40E038
40E038
01C070
01C0E0
01C3C0
03FE00
038000
038000
070000
070000
040000
ENDCHAR

STARTCHAR char81
ENCODING 81
SWIDTH 17 0
DWIDTH 15 0
BBX 17 23 -1 -5
BITMAP
01F000
070800
0E0400
1C0600
380600
780600
780600
F00E00
F00E00
F00C00
E01C00
601800
603800
203000
206000
1FC000
7FE000
FFF080
007C80
001F80
000F00
000300
000100
ENDCHAR

STARTCHAR char82
ENCODING 82
SWIDTH 2 0
DWIDTH 21 0
BBX 22 18 -1 0
BITMAP
001F80
00E260
030430
060C18
181818
303818
303838
607038
607070
C070E0
C0E1C0
C0E380
C0EE00
41F000
41DC00
01DE00
038F1C
0203E0
ENDCHAR

STARTCHAR char83
ENCODING 83
SWIDTH 17 0
DWIDTH 15 0
BBX 15 18 0 0
BITMAP
0078
018C
010C
030C
0318
0390
03C0
01C0
01E0
00E0
00E0
1FF0
707E
E072
C070
C060
E0C0
3F00
ENDCHAR

STARTCHAR char84
ENCODING 84
SWIDTH 24 0
DWIDTH 17 0
BBX 20 18 -1 0
BITMAP
007FF0
07FFF0
1C00E0
300080
200180
400180
C00300
C00700
C00700
C00700
C00700
438E00
4C6E00
100C00
301C00
301800
107000
0FC000
ENDCHAR

STARTCHAR char85
ENCODING 85
SWIDTH 6 0
DWIDTH 22 0
BBX 24 18 -1 0
BITMAP
003C00
01C60F
06061E
0C0E1E
181C3C
301C3C
603878
403878
C070F0
C070F0
C0E1E0
C0E2E0
C1C2E0
41C5C0
4389C0
039180
032187
01C0F8
ENDCHAR

STARTCHAR char86
ENCODING 86
SWIDTH 9 0
DWIDTH 23 0
BBX 23 18 -1 0
BITMAP
000F88
00F08C
038106
0E0206
1C0C06
300C06
601806
60380E
C0700C
C0700C
C06018
C0E018
C0E030
40C030
20C060
00C040
004180
003E00
ENDCHAR

STARTCHAR char87
ENCODING 87
SWIDTH 24 0
DWIDTH 27 0
BBX 27 18 -1 0
BITMAP
00000080
07F031C0
3FFC5040
40186060
4030E060
80714060
0072C060
00E2C0E0
00E480C0
01E580C0
01C981C0
01D10180
01D30180
03A30300
03A30600
03430400
03839800
0301E000
ENDCHAR

STARTCHAR char88
ENCODING 88
SWIDTH 6 0
DWIDTH 22 0
BBX 24 18 -1 0
BITMAP
00F807
030418
060630
180660
300680
700F00
600E00
E00C00
C01C02
C0FF86
C01806
403806
007806
00B00C
01300C
023018
641060
780F80
ENDCHAR

STARTCHAR char89
ENCODING 89
SWIDTH 6 0
DWIDTH 22 0
BBX 23 23 -1 -5
BITMAP
00F000
03980E
0E181E
18381C
30383C
60303C
C07078
C06078
C0E0B8
C0E170
C1E170
41C2F0
43C4E0
23C8E0
23D1C0
07A1F8
07E3C0
03BF80
006300
00C600
018C00
019000
01E000
ENDCHAR

STARTCHAR char90
ENCODING 90
SWIDTH 6 0
DWIDTH 22 0
BBX 24 18 -1 0
BITMAP
001F80
00E7F2
0100FC
021018
021838
041870
0418F0
0810E0
1811E0
182FF8
182780
184700
088E00
071800
006000
3FE007
CFFFF8
F83FE0
ENDCHAR

STARTCHAR char91
ENCODING 91
SWIDTH 35 0
DWIDTH 10 0
BBX 13 23 -2 -5
BITMAP
00F8
01C0
01C0
0380
0380
0380
0700
0700
0700
0E00
0E00
0E00
1C00
1C00
1C00
3800
3800
3000
7000
7000
6000
E000
F800
ENDCHAR

STARTCHAR char92
ENCODING 92
SWIDTH 25 0
DWIDTH 7 0
BBX 7 18 0 0
BITMAP
C0
C0
40
40
60
60
20
30
30
10
18
18
08
0C
0C
04
06
06
ENDCHAR

STARTCHAR char93
ENCODING 93
SWIDTH 35 0
DWIDTH 10 0
BBX 13 23 -5 -5
BITMAP
00F8
0038
0038
0030
0070
0070
0060
00E0
00E0
01C0
01C0
01C0
0380
0380
0380
0700
0700
0600
0E00
0E00
0C00
1C00
7C00
ENDCHAR

STARTCHAR char94
ENCODING 94
SWIDTH 0 0
DWIDTH 0 0
BBX 7 4 -1 19
BITMAP
18
1C
2C
44
ENDCHAR

STARTCHAR char95
ENCODING 95
SWIDTH 13 0
DWIDTH 14 0
BBX 14 1 0 -3
BITMAP
FFFC
ENDCHAR

STARTCHAR char96
ENCODING 96
SWIDTH 0 0
DWIDTH 0 0
BBX 5 3 -1 13
BITMAP
F0
70
18
ENDCHAR

STARTCHAR char97
ENCODING 97
SWIDTH 6 0
DWIDTH 12 0
BBX 12 10 0 0
BITMAP
0F00
11C0
33C0
7380
6380
E700
C700
C600
CE30
F3C0
ENDCHAR

STARTCHAR char98
ENCODING 98
SWIDTH 3 0
DWIDTH 11 0
BBX 11 17 0 0
BITMAP
0E00
0E00
0E00
1C00
1C00
1C00
1B80
3EC0
36C0
36C0
72C0
6380
6180
E380
C260
C400
7800
ENDCHAR

STARTCHAR char99
ENCODING 99
SWIDTH 32 0
DWIDTH 9 0
BBX 9 10 0 0
BITMAP
0780
1980
3180
3700
6E00
E400
C000
C000
C180
7E00
ENDCHAR

STARTCHAR char100
ENCODING 100
SWIDTH 10 0
DWIDTH 13 0
BBX 13 17 0 0
BITMAP
0038
0038
0030
0030
0070
0060
0060
07E0
18C0
31C0
61C0
6180
E180
C300
C300
CF18
73E0
ENDCHAR

STARTCHAR char101
ENCODING 101
SWIDTH 32 0
DWIDTH 9 0
BBX 9 10 0 0
BITMAP
0E00
1B00
3300
7600
6C00
F800
E000
E000
C380
7C00
ENDCHAR

STARTCHAR char102
ENCODING 102
SWIDTH 32 0
DWIDTH 9 0
BBX 11 22 -1 -4
BITMAP
0040
00A0
01A0
0120
0340
0340
0740
0680
0E80
0F00
0F00
7E00
5C00
DC00
D800
F800
F9C0
3E00
7000
7000
7000
E000
ENDCHAR

STARTCHAR char103
ENCODING 103
SWIDTH 6 0
DWIDTH 12 0
BBX 12 15 0 -5
BITMAP
0F00
18E0
31C0
61C0
6380
E380
C380
C700
C730
7EC0
0F00
3E00
4C00
5800
7000
ENDCHAR

STARTCHAR char104
ENCODING 104
SWIDTH 10 0
DWIDTH 13 0
BBX 14 17 -1 0
BITMAP
0300
0700
0600
0600
0E00
0C00
0C00
1C70
19B0
3970
3A60
3AE0
74E0
75C0
6980
718C
70F0
ENDCHAR

STARTCHAR char105
ENCODING 105
SWIDTH 25 0
DWIDTH 7 0
BBX 7 15 0 0
BITMAP
04
0C
0C
00
00
10
30
20
60
60
40
C0
C0
CE
70
ENDCHAR

STARTCHAR char106
ENCODING 106
SWIDTH 32 0
DWIDTH 9 0
BBX 10 20 -1 -5
BITMAP
0180
0180
0080
0000
0000
0200
1E00
2600
4E00
8C00
1C00
1C00
7F80
B800
B800
F000
F000
B000
6000
2000
ENDCHAR

STARTCHAR char107
ENCODING 107
SWIDTH 6 0
DWIDTH 12 0
BBX 13 17 -1 0
BITMAP
0700
0700
0600
0E00
0E00
0C00
1C00
18E0
3960
3AE0
32C0
7580
7600
6F00
EB80
F398
60E0
ENDCHAR

STARTCHAR char108
ENCODING 108
SWIDTH 25 0
DWIDTH 7 0
BBX 8 17 0 0
BITMAP
06
0E
0E
0C
1C
1C
18
38
30
30
70
60
60
E0
C0
CE
70
ENDCHAR

STARTCHAR char109
ENCODING 109
SWIDTH 31 0
DWIDTH 19 0
BBX 20 10 -1 0
BITMAP
00E380
396580
3AE980
32C900
75D300
79E300
EBA600
F3C600
D34660
E38380
ENDCHAR

STARTCHAR char110
ENCODING 110
SWIDTH 10 0
DWIDTH 13 0
BBX 14 10 -1 0
BITMAP
0470
1DF0
3970
3A60
3AE0
74E0
79C0
6980
F18C
60F0
ENDCHAR

STARTCHAR char111
ENCODING 111
SWIDTH 3 0
DWIDTH 11 0
BBX 11 11 0 0
BITMAP
0700
1D80
1D80
3D80
6580
6380
E100
C3E0
C600
CC00
7800
ENDCHAR

STARTCHAR char112
ENCODING 112
SWIDTH 10 0
DWIDTH 13 0
BBX 14 14 -1 -4
BITMAP
0100
06C0
1E60
2E60
4C60
5CE0
5CC0
78C0
FD84
F718
38E0
7000
7000
E000
ENDCHAR

STARTCHAR char113
ENCODING 113
SWIDTH 6 0
DWIDTH 12 0
BBX 12 15 0 -5
BITMAP
0F60
18C0
31C0
6180
6380
E300
C300
C600
CE10
F460
0C80
0D00
0D00
0E00
0C00
ENDCHAR

STARTCHAR char114
ENCODING 114
SWIDTH 32 0
DWIDTH 9 0
BBX 9 10 0 0
BITMAP
0980
3B00
3600
7400
7400
EC00
F380
D000
E000
E000
ENDCHAR

STARTCHAR char115
ENCODING 115
SWIDTH 32 0
DWIDTH 9 0
BBX 9 10 0 0
BITMAP
0E00
1600
1C00
3800
3800
3C00
5C00
9800
D180
FE00
ENDCHAR

STARTCHAR char116
ENCODING 116
SWIDTH 25 0
DWIDTH 7 0
BBX 7 15 0 0
BITMAP
06
0C
1C
1C
18
18
7E
70
70
60
60
E0
C0
C6
78
ENDCHAR

STARTCHAR char117
ENCODING 117
SWIDTH 10 0
DWIDTH 13 0
BBX 13 10 0 0
BITMAP
0020
38E0
71C0
71C0
6180
6180
E380
C300
CF18
73E0
ENDCHAR

STARTCHAR char118
ENCODING 118
SWIDTH 6 0
DWIDTH 12 0
BBX 12 11 0 0
BITMAP
0380
1EC0
36C0
36C0
72C0
6280
6180
C180
C370
C600
7800
ENDCHAR

STARTCHAR char119
ENCODING 119
SWIDTH 28 0
DWIDTH 18 0
BBX 19 11 -1 0
BITMAP
000700
0C3D80
386D80
38ED80
70E580
71C700
71C300
E18700
E386C0
C38800
7DF000
ENDCHAR

STARTCHAR char120
ENCODING 120
SWIDTH 6 0
DWIDTH 12 0
BBX 13 10 -1 0
BITMAP
3E78
42D8
4390
0360
0780
1F00
6E00
CE00
DA18
73E0
ENDCHAR

STARTCHAR char121
ENCODING 121
SWIDTH 6 0
DWIDTH 12 0
BBX 12 15 0 -5
BITMAP
0820
31C0
31C0
71C0
6380
6380
C380
C700
CF30
76C0
0F00
3E00
6C00
5800
7000
ENDCHAR

STARTCHAR char122
ENCODING 122
SWIDTH 35 0
DWIDTH 10 0
BBX 11 10 -1 0
BITMAP
3FC0
30C0
2380
2F00
1E00
7800
7000
6C00
5F60
6780
ENDCHAR

STARTCHAR char123
ENCODING 123
SWIDTH 28 0
DWIDTH 8 0
BBX 6 23 1 -5
BITMAP
1C
3C
30
30
30
30
30
30
30
30
60
C0
60
30
30
30
30
30
30
30
30
3C
1C
ENDCHAR

STARTCHAR char124
ENCODING 124
SWIDTH 21 0
DWIDTH 6 0
BBX 2 18 2 0
BITMAP
C0
C0
C0
C0
C0
C0
C0
C0
C0
C0
C0
C0
C0
C0
C0
C0
C0
C0
ENDCHAR

STARTCHAR char125
ENCODING 125
SWIDTH 28 0
DWIDTH 8 0
BBX 6 23 1 -5
BITMAP
E0
F0
30
30
30
30
30
30
30
38
1C
0C
18
38
30
30
30
30
30
30
30
F0
E0
ENDCHAR

STARTCHAR char126
ENCODING 126
SWIDTH 0 0
DWIDTH 0 0
BBX 9 3 -1 19
BITMAP
3880
7F00
8E00
ENDCHAR

STARTCHAR char128
ENCODING 128
SWIDTH 17 0
DWIDTH 15 0
BBX 19 18 -4 0
BITMAP
000F80
003840
00E020
31C020
0FC020
43E000
376000
0F9800
0F8600
0E6180
0E1800
0C0600
0C0000
0C0000
0C0000
040000
0200E0
01FF00
ENDCHAR

STARTCHAR char130
ENCODING 130
SWIDTH 17 0
DWIDTH 5 0
BBX 4 6 0 -3
BITMAP
30
70
30
20
40
80
ENDCHAR

STARTCHAR char131
ENCODING 131
SWIDTH 0 0
DWIDTH 0 0
BBX 7 4 -1 19
BITMAP
18
1C
2C
44
ENDCHAR

STARTCHAR char132
ENCODING 132
SWIDTH 35 0
DWIDTH 10 0
BBX 8 6 0 -3
BITMAP
33
77
33
22
46
84
ENDCHAR

STARTCHAR char133
ENCODING 133
SWIDTH 16 0
DWIDTH 25 0
BBX 19 3 3 0
BITMAP
C0C060
C0C060
C0C060
ENDCHAR

STARTCHAR char134
ENCODING 134
SWIDTH 3 0
DWIDTH 11 0
BBX 11 21 1 -3
BITMAP
0300
0300
0300
0200
0200
7BC0
74C0
0C00
1C00
1800
1800
3800
3000
3000
3000
6000
6000
4000
4000
4000
8000
ENDCHAR

STARTCHAR char136
ENCODING 136
SWIDTH 0 0
DWIDTH 0 0
BBX 7 4 -2 13
BITMAP
1C
1C
2C
46
ENDCHAR

STARTCHAR char139
ENCODING 139
SWIDTH 28 0
DWIDTH 8 0
BBX 4 8 2 3
BITMAP
10
30
70
C0
C0
60
30
10
ENDCHAR

STARTCHAR char140
ENCODING 140
SWIDTH 20 0
DWIDTH 26 0
BBX 26 18 -1 0
BITMAP
00380F00
02C41C80
06823880
0D037880
19037100
39037200
32076400
72076000
70076000
E00F8000
E00F0000
C00E0080
C01C00C0
C01C00C0
C03C01C0
603C0180
607C0600
1F87F800
ENDCHAR

STARTCHAR char145
ENCODING 145
SWIDTH 21 0
DWIDTH 6 0
BBX 4 7 3 11
BITMAP
20
20
20
40
C0
E0
C0
ENDCHAR

STARTCHAR char146
ENCODING 146
SWIDTH 21 0
DWIDTH 6 0
BBX 5 6 2 11
BITMAP
38
38
18
10
20
40
ENDCHAR

STARTCHAR char147
ENCODING 147
SWIDTH 35 0
DWIDTH 10 0
BBX 9 7 2 11
BITMAP
0800
1080
2100
6200
6600
F700
E600
ENDCHAR

STARTCHAR char148
ENCODING 148
SWIDTH 35 0
DWIDTH 10 0
BBX 8 6 3 11
BITMAP
73
77
33
22
44
84
ENDCHAR

STARTCHAR char149
ENCODING 149
SWIDTH 28 0
DWIDTH 8 0
BBX 7 6 1 6
BITMAP
38
7C
FE
FE
FE
38
ENDCHAR

STARTCHAR char150
ENCODING 150
SWIDTH 13 0
DWIDTH 14 0
BBX 13 1 -1 5
BITMAP
7FF0
ENDCHAR

STARTCHAR char151
ENCODING 151
SWIDTH 21 0
DWIDTH 16 0
BBX 16 1 1 7
BITMAP
FFFF
ENDCHAR

STARTCHAR char152
ENCODING 152
SWIDTH 0 0
DWIDTH 0 0
BBX 10 3 -2 13
BITMAP
3840
7F80
4F00
ENDCHAR

STARTCHAR char153
ENCODING 153
SWIDTH 2 0
DWIDTH 21 0
BBX 20 9 0 7
BITMAP
FFE070
9B20A0
1830E0
1830E0
183960
182960
182E60
182660
3C64F0
ENDCHAR

STARTCHAR char155
ENCODING 155
SWIDTH 28 0
DWIDTH 8 0
BBX 4 8 2 3
BITMAP
80
C0
70
30
30
70
C0
80
ENDCHAR

STARTCHAR char156
ENCODING 156
SWIDTH 17 0
DWIDTH 15 0
BBX 15 10 0 0
BITMAP
0F7C
11CC
31CC
6198
63B0
C360
C380
C700
CF0C
79F0
ENDCHAR

STARTCHAR char159
ENCODING 159
SWIDTH 6 0
DWIDTH 22 0
BBX 24 27 -1 -5
BITMAP
001980
001980
001980
000000
00F000
03980E
0E181E
18381C
30383C
60303C
C07058
C060F8
C0E0B8
C0E130
C1E170
41C270
43C460
23C8E0
23D0C0
07A0F8
07E3C0
03BF80
006700
00C600
018C00
019000
01E000
ENDCHAR

STARTCHAR char160
ENCODING 160
SWIDTH 21 0
DWIDTH 6 0
BBX 0 0 0 0
BITMAP
ENDCHAR

STARTCHAR char161
ENCODING 161
SWIDTH 32 0
DWIDTH 9 0
BBX 8 17 -1 0
BITMAP
03
03
02
00
00
02
02
04
04
0C
0C
18
18
38
38
78
70
ENDCHAR

STARTCHAR char162
ENCODING 162
SWIDTH 32 0
DWIDTH 9 0
BBX 9 15 0 -2
BITMAP
0200
0200
0200
0580
1D80
3580
3700
6E00
EC00
C800
D000
D180
7E00
1000
2000
ENDCHAR

STARTCHAR char163
ENCODING 163
SWIDTH 28 0
DWIDTH 18 0
BBX 18 18 -1 0
BITMAP
001C00
002300
004180
0080C0
0180C0
018080
018000
018000
01C000
1FFC00
00C000
00C000
00C000
008000
3C8000
FFC200
C7FC00
78F800
ENDCHAR

STARTCHAR char164
ENCODING 164
SWIDTH 0 0
DWIDTH 0 0
BBX 6 3 1 19
BITMAP
38
70
60
ENDCHAR

STARTCHAR char165
ENCODING 165
SWIDTH 0 0
DWIDTH 0 0
BBX 7 4 0 18
BITMAP
44
68
78
30
ENDCHAR

STARTCHAR char167
ENCODING 167
SWIDTH 6 0
DWIDTH 12 0
BBX 15 22 -3 -6
BITMAP
007C
0086
0086
0186
0180
01C0
00C0
07E0
0860
0870
1C30
1C30
0E30
0E20
07C0
0700
0380
0380
4180
C180
C300
3E00
ENDCHAR

STARTCHAR char168
ENCODING 168
SWIDTH 0 0
DWIDTH 0 0
BBX 6 3 0 13
BITMAP
CC
CC
CC
ENDCHAR

STARTCHAR char169
ENCODING 169
SWIDTH 28 0
DWIDTH 18 0
BBX 18 16 0 0
BITMAP
03F000
0C0C00
100200
21F300
631180
460880
CC08C0
CC00C0
CC00C0
CC00C0
4E0080
661180
21E100
100200
0C0C00
03F000
ENDCHAR

STARTCHAR char170
ENCODING 170
SWIDTH 0 0
DWIDTH 0 0
BBX 6 3 0 19
BITMAP
CC
CC
CC
ENDCHAR

STARTCHAR char171
ENCODING 171
SWIDTH 3 0
DWIDTH 11 0
BBX 11 6 0 2
BITMAP
19C0
3380
6600
E700
7700
3B80
ENDCHAR

STARTCHAR char172
ENCODING 172
SWIDTH 24 0
DWIDTH 17 0
BBX 16 7 0 0
BITMAP
FFFF
0003
0003
0003
0003
0003
0003
ENDCHAR

STARTCHAR char174
ENCODING 174
SWIDTH 28 0
DWIDTH 18 0
BBX 18 16 0 0
BITMAP
03F000
0C0C00
100600
27E300
633980
431880
C338C0
C3C0C0
C360C0
C360C0
C33080
431980
279D00
300200
080C00
07F000
ENDCHAR

STARTCHAR char176
ENCODING 176
SWIDTH 21 0
DWIDTH 6 0
BBX 8 7 2 9
BITMAP
7C
42
C3
C3
C2
44
38
ENDCHAR

STARTCHAR char177
ENCODING 177
SWIDTH 10 0
DWIDTH 13 0
BBX 12 15 0 0
BITMAP
0600
0600
0600
0600
0600
FFF0
0600
0600
0600
0600
0600
0600
0000
0000
FFF0
ENDCHAR

STARTCHAR char180
ENCODING 180
SWIDTH 0 0
DWIDTH 0 0
BBX 6 4 0 12
BITMAP
3C
38
60
C0
ENDCHAR

STARTCHAR char182
ENCODING 182
SWIDTH 24 0
DWIDTH 17 0
BBX 11 21 2 -4
BITMAP
1FE0
3C60
7C60
FC60
FC60
FC60
7C60
7C60
3C60
0C60
0C60
0C60
0C60
0C60
0C60
0C60
0C60
0C60
0C60
0C60
0C60
ENDCHAR

STARTCHAR char183
ENCODING 183
SWIDTH 14 0
DWIDTH 4 0
BBX 2 3 2 6
BITMAP
C0
C0
C0
ENDCHAR

STARTCHAR char184
ENCODING 184
SWIDTH 0 0
DWIDTH 0 0
BBX 5 4 -5 -4
BITMAP
18
38
10
60
ENDCHAR

STARTCHAR char186
ENCODING 186
SWIDTH 0 0
DWIDTH 0 0
BBX 9 3 -1 19
BITMAP
3880
7F00
8E00
ENDCHAR

STARTCHAR char187
ENCODING 187
SWIDTH 3 0
DWIDTH 11 0
BBX 10 6 0 2
BITMAP
7700
3B80
1DC0
1980
7300
E600
ENDCHAR

STARTCHAR char191
ENCODING 191
SWIDTH 3 0
DWIDTH 11 0
BBX 8 17 0 0
BITMAP
01
03
03
00
0E
19
03
07
0E
1C
38
71
E1
C2
C2
44
38
ENDCHAR

STARTCHAR char192
ENCODING 192
SWIDTH 9 0
DWIDTH 23 0
BBX 24 22 -1 0
BITMAP
000E00
000700
000300
000000
000004
00001E
00002E
00002E
00004E
00009C
00009C
000118
000138
03FFFE
1C0230
700470
600460
C00860
C010E0
C020C0
60C0C7
3F00F8
ENDCHAR

STARTCHAR char193
ENCODING 193
SWIDTH 9 0
DWIDTH 23 0
BBX 24 22 -1 0
BITMAP
000380
000300
000600
000000
000004
00001E
00002E
00002E
00004E
00009C
00009C
000118
000138
03FFFE
1C0230
700470
600460
C00860
C010E0
C020C0
60C0C7
3F00F8
ENDCHAR

STARTCHAR char194
ENCODING 194
SWIDTH 9 0
DWIDTH 23 0
BBX 24 23 -1 0
BITMAP
000700
000700
000B00
001100
000000
000004
00001E
00002E
00002E
00004E
00009C
00009C
000118
000138
03FFFE
1C0230
700470
600460
C00860
C010E0
C020C0
60C0C7
3F00F8
ENDCHAR

STARTCHAR char195
ENCODING 195
SWIDTH 9 0
DWIDTH 23 0
BBX 24 22 -1 0
BITMAP
000E20
001FE0
0013C0
000000
000004
00001E
00002E
00002E
00004E
00009C
00009C
000118
000138
03FFFE
1C0230
700470
600460
C00860
C010E0
C020C0
60C0C7
3F00F8
ENDCHAR

STARTCHAR char196
ENCODING 196
SWIDTH 9 0
DWIDTH 23 0
BBX 25 22 -1 0
BITMAP
00001980
00001980
00001980
00000000
00000800
00001E00
00003C00
00003C00
00005C00
00009C00
00009C00
00011800
00013800
03FFFC00
1C022000
70046000
60044000
C0084000
C010C000
C020C000
60C0C600
3F00F800
ENDCHAR

STARTCHAR char197
ENCODING 197
SWIDTH 9 0
DWIDTH 23 0
BBX 25 22 -1 0
BITMAP
00000700
00000D80
00000D80
00000700
00000400
00001E00
00002600
00002E00
00004E00
00008C00
00009C00
00011800
00011800
03FFFE00
1C023800
70047000
60047000
C0086000
C010E000
C020C000
60C0C700
3F00F800
ENDCHAR

STARTCHAR char198
ENCODING 198
SWIDTH 24 0
DWIDTH 27 0
BBX 28 18 -1 0
BITMAP
000061E0
000163E0
00016720
0002EE20
0004EE60
000DCC60
0009CC80
0009CD00
00118800
07FFF800
1C23C000
30238040
60470060
C0460060
C08600E0
C08600C0
E3030380
7C01FC00
ENDCHAR

STARTCHAR char199
ENCODING 199
SWIDTH 17 0
DWIDTH 15 0
BBX 15 22 0 -4
BITMAP
00F8
0384
0E06
1C06
3C06
3846
7186
720C
E40C
E818
E830
C860
C9C0
CF00
4000
4000
300E
13F0
0C00
0C00
0800
1000
ENDCHAR

STARTCHAR char200
ENCODING 200
SWIDTH 17 0
DWIDTH 15 0
BBX 15 22 0 0
BITMAP
01C0
00E0
0020
0000
0070
00EC
01C4
038C
0388
0390
0320
0300
0200
0C00
3800
7004
E006
C006
C00C
C018
6030
3FC0
ENDCHAR

STARTCHAR char201
ENCODING 201
SWIDTH 17 0
DWIDTH 15 0
BBX 15 22 0 0
BITMAP
0038
0070
0060
0000
0070
00EC
01C4
038C
0388
0390
0320
0300
0200
0C00
3800
7004
E006
C006
C00C
C018
6030
3FC0
ENDCHAR

STARTCHAR char202
ENCODING 202
SWIDTH 17 0
DWIDTH 15 0
BBX 15 23 0 0
BITMAP
0060
00E0
00F0
0110
0000
0070
00EC
01C4
038C
0388
0390
0320
0300
0200
0C00
3800
7004
E006
C006
C00C
C018
6030
3FC0
ENDCHAR

STARTCHAR char203
ENCODING 203
SWIDTH 17 0
DWIDTH 15 0
BBX 15 22 0 0
BITMAP
0198
0198
0198
0000
0070
00EC
01CC
018C
038C
0318
0320
0200
0200
1C00
3800
7004
E006
C006
C00C
C018
6030
3FC0
ENDCHAR

STARTCHAR char204
ENCODING 204
SWIDTH 21 0
DWIDTH 16 0
BBX 18 22 -1 0
BITMAP
007000
003000
001800
000000
00F000
07FFC0
080080
100180
200380
200300
000700
000700
000700
000E00
000E00
1FEE00
201C00
401F00
C03880
C07000
40E000
3F8000
ENDCHAR

STARTCHAR char205
ENCODING 205
SWIDTH 21 0
DWIDTH 16 0
BBX 18 22 -1 0
BITMAP
001E00
001C00
003800
006000
000000
03FE00
0FFF80
100180
200380
200300
000700
000700
000700
000E00
000E00
1FEE00
201C00
401F00
C03880
C07000
40E000
3F8000
ENDCHAR

STARTCHAR char206
ENCODING 206
SWIDTH 21 0
DWIDTH 16 0
BBX 18 23 -1 0
BITMAP
003800
007800
005800
008C00
000000
03FC00
0FFF80
100080
100180
200380
200300
000700
000700
000700
000E00
000E00
1FEE00
201C00
401F00
C03880
C07000
40E000
3F8000
ENDCHAR

STARTCHAR char207
ENCODING 207
SWIDTH 21 0
DWIDTH 16 0
BBX 18 22 -1 0
BITMAP
00CC00
00CC00
00CC00
000000
01E000
07FFC0
080080
100180
200380
200300
000300
000700
000700
000E00
000E00
1FEE00
601800
401F00
C03080
C06000
41C000
3F8000
ENDCHAR

STARTCHAR char209
ENCODING 209
SWIDTH 6 0
DWIDTH 22 0
BBX 24 22 -1 0
BITMAP
000E20
001FC0
0023C0
000000
00F803
038C1E
060462
0C0684
18070C
300618
700E38
601E70
C02C70
C05C70
C05CE0
C09CE0
C138E0
C138C0
4370C0
0360C0
03E043
03C03C
ENDCHAR

STARTCHAR char210
ENCODING 210
SWIDTH 24 0
DWIDTH 17 0
BBX 16 22 0 0
BITMAP
00E0
0070
0030
0000
0038
02C4
0486
0D06
1907
3A07
3207
7207
600F
E00E
E00E
C01E
C01C
C01C
C038
6070
60E0
1F80
ENDCHAR

STARTCHAR char211
ENCODING 211
SWIDTH 24 0
DWIDTH 17 0
BBX 16 22 0 0
BITMAP
003C
0038
0070
0000
0038
02C4
0586
0D06
1907
3207
3207
7207
600F
E00E
E00E
C01E
C01C
C01C
C038
6070
20E0
1F80
ENDCHAR

STARTCHAR char212
ENCODING 212
SWIDTH 24 0
DWIDTH 17 0
BBX 16 23 0 0
BITMAP
0030
0070
0078
0098
0000
0038
02C4
0586
0D06
1907
3207
3207
7207
600F
E00E
E00E
C01E
C01C
C01C
C038
6070
20E0
1F80
ENDCHAR

STARTCHAR char213
ENCODING 213
SWIDTH 24 0
DWIDTH 17 0
BBX 16 22 0 0
BITMAP
00F1
01FE
013C
0000
0038
02C4
0486
0D06
1907
3A07
3207
7207
600F
E00E
E00E
C00E
C01C
C01C
C038
6070
20E0
1F80
ENDCHAR

STARTCHAR char214
ENCODING 214
SWIDTH 24 0
DWIDTH 17 0
BBX 16 22 0 0
BITMAP
00CC
00CC
00CC
0000
0038
02C4
0482
0D02
1903
3A03
3207
7207
6007
E006
E00E
C00C
C00C
C018
C010
6030
2040
1F80
ENDCHAR

STARTCHAR char216
ENCODING 216
SWIDTH 24 0
DWIDTH 17 0
BBX 16 19 0 -1
BITMAP
0079
02C6
0586
0D0E
1917
3217
3227
7247
608F
E10E
E20E
C41E
C41C
C81C
F038
6070
60E0
BF80
8000
ENDCHAR

STARTCHAR char217
ENCODING 217
SWIDTH 6 0
DWIDTH 22 0
BBX 24 23 -1 0
BITMAP
000E00
000E00
000600
000300
000000
003C00
01C60F
06061E
0C0E1E
181C3C
301C3C
603878
403878
C070F0
C070F0
C0E1E0
C0E2E0
C1C2E0
41C5C0
4389C0
039180
032187
01C0F8
ENDCHAR

STARTCHAR char218
ENCODING 218
SWIDTH 6 0
DWIDTH 22 0
BBX 24 22 -1 0
BITMAP
000380
000300
000600
000000
003C00
01C60F
06061E
0C0E1E
181C3C
301C3C
603878
403878
C070F0
C070F0
C0E1E0
C0E2E0
C1C2E0
41C5C0
4389C0
039180
032187
01C0F8
ENDCHAR

STARTCHAR char219
ENCODING 219
SWIDTH 6 0
DWIDTH 22 0
BBX 24 23 -1 0
BITMAP
000600
000700
000B00
001100
000000
003C00
01C60F
06061E
0C0E1E
181C3C
301C3C
603878
403878
C070F0
C070F0
C0E1E0
C0E2E0
C1C2E0
41C5C0
4389C0
039180
032187
01C0F8
ENDCHAR

STARTCHAR char220
ENCODING 220
SWIDTH 6 0
DWIDTH 22 0
BBX 24 22 -1 0
BITMAP
000198
0001F8
0001D8
000000
007C00
01860E
06061E
0C0E1E
181C3C
301C3C
603878
603878
C070F0
C070F0
C0E1E0
C0E2E0
C1C2E0
41C5C0
4189C0
039180
03A187
01C0F8
ENDCHAR

STARTCHAR char223
ENCODING 223
SWIDTH 17 0
DWIDTH 15 0
BBX 16 22 -1 -4
BITMAP
0070
00D8
0198
0318
0730
0630
0E60
0EC0
0D80
1DC0
1C30
1C18
1818
3818
3FD8
7836
F060
7F80
7000
6000
6000
4000
ENDCHAR

STARTCHAR char224
ENCODING 224
SWIDTH 6 0
DWIDTH 12 0
BBX 12 16 0 0
BITMAP
0700
0380
0180
0000
0000
0000
0F00
11C0
33C0
7380
6380
E700
C700
C600
CE30
F3C0
ENDCHAR

STARTCHAR char225
ENCODING 225
SWIDTH 6 0
DWIDTH 12 0
BBX 12 16 0 0
BITMAP
01E0
01C0
0300
0600
0000
0000
0F00
11C0
33C0
7380
6380
E700
C700
C600
CE30
F3C0
ENDCHAR

STARTCHAR char226
ENCODING 226
SWIDTH 6 0
DWIDTH 12 0
BBX 12 17 0 0
BITMAP
0180
0380
0780
04C0
0000
0000
0000
0F00
11C0
33C0
7380
6380
E700
C700
C600
CE30
F3C0
ENDCHAR

STARTCHAR char227
ENCODING 227
SWIDTH 6 0
DWIDTH 12 0
BBX 13 16 0 0
BITMAP
0788
0FF0
08E0
0000
0000
0000
0F00
11C0
33C0
7380
6380
E700
C700
C600
CE30
F3C0
ENDCHAR

STARTCHAR char228
ENCODING 228
SWIDTH 6 0
DWIDTH 12 0
BBX 12 16 0 0
BITMAP
0620
0760
0660
0000
0000
0000
0F40
19C0
3180
7380
6300
E300
C700
C600
CE30
F7C0
ENDCHAR

STARTCHAR char229
ENCODING 229
SWIDTH 6 0
DWIDTH 12 0
BBX 12 16 0 0
BITMAP
03C0
0660
0660
03C0
0000
0000
0F00
11C0
31C0
73C0
6780
E780
C700
C700
C730
FFC0
ENDCHAR

STARTCHAR char230
ENCODING 230
SWIDTH 17 0
DWIDTH 15 0
BBX 15 10 0 0
BITMAP
0F3C
11EC
33CC
6398
63B0
E360
C780
C600
CF0E
F3F0
ENDCHAR

STARTCHAR char231
ENCODING 231
SWIDTH 32 0
DWIDTH 9 0
BBX 9 14 0 -4
BITMAP
0780
0D80
1980
3700
6600
6400
E000
E000
E180
3E00
3000
7000
2000
C000
ENDCHAR

STARTCHAR char232
ENCODING 232
SWIDTH 32 0
DWIDTH 9 0
BBX 9 16 0 0
BITMAP
1E00
0E00
0700
0000
0000
0000
0E00
1B00
3300
7600
6C00
F800
E000
E000
C380
7C00
ENDCHAR

STARTCHAR char233
ENCODING 233
SWIDTH 32 0
DWIDTH 9 0
BBX 10 16 0 0
BITMAP
03C0
0300
0600
0C00
0000
0000
0E00
1B00
3300
7600
6C00
F800
E000
E000
C380
7C00
ENDCHAR

STARTCHAR char234
ENCODING 234
SWIDTH 32 0
DWIDTH 9 0
BBX 9 17 0 0
BITMAP
0700
0700
0B00
1100
0000
0000
0000
0E00
1B00
3300
7600
6C00
F800
E000
E000
C380
7C00
ENDCHAR

STARTCHAR char235
ENCODING 235
SWIDTH 32 0
DWIDTH 9 0
BBX 10 16 0 0
BITMAP
1980
1BC0
1980
0000
0000
0000
1E00
3B00
3300
7600
6400
F800
E000
E000
C180
7E00
ENDCHAR

STARTCHAR char236
ENCODING 236
SWIDTH 25 0
DWIDTH 7 0
BBX 7 16 0 0
BITMAP
3C
1C
0E
00
00
00
08
38
30
70
70
60
E0
C0
C6
78
ENDCHAR

STARTCHAR char237
ENCODING 237
SWIDTH 25 0
DWIDTH 7 0
BBX 8 16 0 0
BITMAP
07
06
0C
18
00
00
08
38
30
30
70
60
E0
C0
C6
78
ENDCHAR

STARTCHAR char238
ENCODING 238
SWIDTH 25 0
DWIDTH 7 0
BBX 8 17 0 0
BITMAP
0C
0E
16
22
00
00
00
08
38
30
30
70
60
E0
C0
C6
78
ENDCHAR

STARTCHAR char239
ENCODING 239
SWIDTH 25 0
DWIDTH 7 0
BBX 8 16 0 0
BITMAP
13
3B
33
00
00
00
08
38
30
30
70
60
E0
C0
C6
78
ENDCHAR

STARTCHAR char241
ENCODING 241
SWIDTH 10 0
DWIDTH 13 0
BBX 15 16 -1 0
BITMAP
03C6
03F8
0270
0000
0000
0000
0470
1DF0
3970
3A60
32E0
74E0
79C0
6980
F18C
60F0
ENDCHAR

STARTCHAR char242
ENCODING 242
SWIDTH 3 0
DWIDTH 11 0
BBX 11 16 0 0
BITMAP
0F00
0F00
0380
0000
0000
0700
1D80
1D80
3D80
6580
6380
E100
C3E0
C600
CC00
7800
ENDCHAR

STARTCHAR char243
ENCODING 243
SWIDTH 3 0
DWIDTH 11 0
BBX 11 16 0 0
BITMAP
01C0
0180
0300
0600
0000
0700
1D80
1D80
3D80
6580
6380
E100
C3E0
C600
CC00
7800
ENDCHAR

STARTCHAR char244
ENCODING 244
SWIDTH 3 0
DWIDTH 11 0
BBX 11 17 0 0
BITMAP
0300
0380
0580
0880
0000
0000
0700
1D80
1D80
3D80
6580
6380
E100
C3E0
C600
CC00
7800
ENDCHAR

STARTCHAR char245
ENCODING 245
SWIDTH 3 0
DWIDTH 11 0
BBX 12 16 0 0
BITMAP
0710
0FE0
09C0
0000
0000
0700
1D80
1D80
3D80
6580
6380
E100
C3E0
C600
CC00
7800
ENDCHAR

STARTCHAR char246
ENCODING 246
SWIDTH 3 0
DWIDTH 11 0
BBX 11 16 0 0
BITMAP
0CC0
0CC0
0CC0
0000
0000
0300
1500
1500
3500
6300
6300
C100
C3E0
C200
C400
7800
ENDCHAR

STARTCHAR char247
ENCODING 247
SWIDTH 10 0
DWIDTH 13 0
BBX 12 9 0 2
BITMAP
0600
0600
0600
0000
FFF0
0000
0600
0600
0600
ENDCHAR

STARTCHAR char248
ENCODING 248
SWIDTH 3 0
DWIDTH 11 0
BBX 11 15 0 -2
BITMAP
0080
0100
0300
0F80
1780
3580
6780
6F00
EB00
DBE0
D600
E600
7C00
2000
4000
ENDCHAR

STARTCHAR char249
ENCODING 249
SWIDTH 10 0
DWIDTH 13 0
BBX 13 16 0 0
BITMAP
0700
0380
0180
0000
0000
0000
1820
30E0
71C0
71C0
6180
6180
E380
C300
CF18
73E0
ENDCHAR

STARTCHAR char250
ENCODING 250
SWIDTH 10 0
DWIDTH 13 0
BBX 13 16 0 0
BITMAP
00E0
00C0
0180
0200
0000
0000
1860
30E0
71C0
71C0
6180
6180
E380
C300
CF18
73E0
ENDCHAR

STARTCHAR char251
ENCODING 251
SWIDTH 10 0
DWIDTH 13 0
BBX 13 17 0 0
BITMAP
0180
0180
03C0
04C0
0000
0000
0000
1860
30E0
71C0
71C0
6180
6180
E380
C300
CF18
73E0
ENDCHAR

STARTCHAR char252
ENCODING 252
SWIDTH 10 0
DWIDTH 13 0
BBX 13 16 0 0
BITMAP
0660
0E60
0660
0000
0000
0000
0820
30C0
30C0
70C0
6180
6180
E380
C300
CF18
71E0
ENDCHAR

STARTCHAR char255
ENCODING 255
SWIDTH 6 0
DWIDTH 12 0
BBX 12 21 0 -5
BITMAP
0660
0660
0660
0000
0000
0000
10C0
30C0
31C0
61C0
6180
6380
C380
C380
DF30
6FE0
0E00
3C00
6C00
5800
7000
ENDCHAR
ENDFONT
